<svg width="132" height="52" viewBox="0 0 132 52" fill="none" xmlns="http://www.w3.org/2000/svg">
<g clip-path="url(#clip0_384_148)">
<g clip-path="url(#clip1_384_148)">
<path d="M12.154 0.175507C12.8184 0.105856 13.5286 0.443617 14.1901 0.847214C15.273 1.50747 16.2606 2.29558 17.1366 3.22395C17.659 3.7783 18.1985 4.31452 18.6942 4.89558C19.0421 5.30395 19.1088 5.2696 19.4587 4.86886C20.7236 3.42336 22.021 2.00934 23.6615 0.973158C24.3116 0.561929 24.937 0.141159 25.7596 0.0333422C27.2571 -0.163208 27.8291 0.519948 28.1408 1.79943C28.2619 2.29844 28.2514 2.80986 28.2342 3.31745C28.2237 3.62373 28.3191 3.85844 28.5364 4.08266C29.5907 5.16655 29.3028 6.60729 27.9149 7.21125C27.7652 7.27613 27.6337 7.30857 27.5727 7.48985C27.3372 8.19686 27.0932 8.90196 26.8358 9.60229C26.7281 9.89426 26.8663 9.96391 27.1103 10.0059C29.074 10.3379 30.9853 10.8455 32.7678 11.7577C33.4284 12.0954 34.0538 12.4885 34.5361 13.082C35.2281 13.9312 35.1586 15.0074 34.3702 15.7726C33.1282 16.9787 31.5572 17.5273 29.9605 18.0168C29.0531 18.2954 28.1217 18.4957 27.1809 18.6379C26.8682 18.6846 26.7424 18.802 26.8911 19.1455C27.2905 20.0653 27.504 21.0461 27.769 22.0079C27.9673 22.7254 27.953 23.4791 28.0636 24.211C28.1646 24.8827 28.0941 25.5353 28.0054 26.1965C27.749 28.1114 26.3201 28.432 24.8064 27.8576C24.3154 27.6706 23.8474 27.4302 23.4347 27.101C23.2211 26.9312 23.0343 26.9073 22.7845 27.038C22.1611 27.3653 21.5549 27.2918 21.0039 26.8615C20.4501 26.4293 20.1202 25.8454 20.2985 25.1565C20.4415 24.6041 20.2947 24.2663 19.8934 23.9323C19.677 23.752 19.5006 23.5163 19.3367 23.2845C19.1184 22.9763 18.9249 23.0421 18.7485 23.2998C18.4244 23.774 18.0298 24.1861 17.6218 24.5821C16.3683 25.8005 15.1014 27.0218 13.4561 27.6983C11.7003 28.4196 10.4134 27.7813 10.2037 25.6049C9.98537 23.3379 10.706 21.2465 11.3056 19.1302C11.4181 18.7323 11.2875 18.6684 10.9644 18.6121C8.94157 18.2601 6.96741 17.7582 5.15625 16.7382C4.59384 16.4214 4.10483 16.0274 3.68826 15.5417C3.0534 14.8013 3.04864 13.9274 3.68922 13.166C3.94564 12.8616 4.05431 12.5773 4.04382 12.1489C4.02476 11.3712 4.44132 10.774 5.15053 10.4019C5.8035 10.0603 6.39165 10.2005 6.9064 10.6604C7.19238 10.9152 7.44784 10.9505 7.81008 10.8436C8.90249 10.5192 9.98156 10.1309 11.1235 9.99826C11.3752 9.96868 11.4696 9.87708 11.3781 9.58703C11.0053 8.40677 10.645 7.22174 10.3161 6.02908C10.2037 5.62072 10.2046 5.18277 10.1417 4.75914C10.014 3.90138 9.76899 3.04266 10.0464 2.17727C10.1989 1.70116 10.2742 1.18879 10.6336 0.793782C11.0864 0.295727 11.3199 0.180278 12.1549 0.175507H12.154ZM15.2196 9.50116C15.5647 9.46395 15.9832 9.6729 16.232 9.2798C16.7658 8.43635 17.3206 7.60626 17.9497 6.83151C18.2805 6.42409 18.2147 6.10828 17.9059 5.73998C17.3358 5.06064 16.8106 4.34314 16.1957 3.70101C15.0976 2.55606 14.0395 1.37008 12.5515 0.691691C11.5077 0.216535 10.706 0.725085 10.687 1.87004C10.665 3.18292 10.8538 4.45668 11.236 5.71136C11.3285 6.01477 11.5058 6.28765 11.5773 6.58057C11.8022 7.50798 12.2083 8.3667 12.5143 9.26262C12.6583 9.68435 12.9404 9.75305 13.3332 9.70152C13.9604 9.61947 14.5914 9.56604 15.2206 9.5002L15.2196 9.50116ZM26.7453 17.555C26.8558 17.5435 26.9674 17.5406 27.076 17.5197C28.2418 17.2945 29.4086 17.0741 30.5716 16.8365C31.6516 16.6161 32.6906 16.2335 33.6219 15.6686C34.9231 14.8805 35.1014 13.9693 33.703 13.0753C32.7793 12.4847 31.7545 12.1823 30.7126 11.8998C29.3648 11.5354 27.9978 11.2835 26.6118 11.126C26.3706 11.0984 26.1991 11.1871 26.0875 11.4333C25.7396 12.1966 25.3745 12.9532 25.0027 13.705C24.8512 14.0104 24.8226 14.288 24.9741 14.6086C25.3859 15.4835 25.7796 16.368 26.1666 17.2535C26.2858 17.5263 26.4888 17.5769 26.7453 17.553V17.555ZM27.6432 2.20398C27.6937 1.82329 27.5774 1.46931 27.485 1.12105C27.3267 0.52281 26.8063 0.226076 26.201 0.3587C25.4222 0.528535 24.7778 0.98747 24.1753 1.45881C23.2774 2.162 22.5138 3.02167 21.7531 3.8718C21.1831 4.50916 20.6703 5.19708 20.1393 5.86879C19.9439 6.11591 19.8476 6.34872 20.0897 6.66644C20.6474 7.3954 21.2107 8.12912 21.6731 8.91914C21.9657 9.4191 22.3289 9.56413 22.8398 9.52215C23.6024 9.46013 24.3479 9.66241 25.1076 9.67863C25.4174 9.6853 25.5337 9.61661 25.6319 9.37044C25.8378 8.85521 26.0256 8.32949 26.2705 7.83239C26.5241 7.31811 26.4669 6.92692 26.0446 6.51664C25.7015 6.1827 25.467 5.71804 25.6014 5.22189C25.8035 4.47672 26.2486 3.92141 27.0532 3.74299C27.2228 3.70578 27.4402 3.67048 27.443 3.45675C27.4487 3.02358 27.729 2.64097 27.6432 2.20589V2.20398ZM10.8595 25.7261C10.8776 25.9885 10.8795 26.2919 10.9224 26.5896C11.0187 27.2623 11.4171 27.5628 12.1016 27.5447C12.5029 27.5342 12.848 27.3796 13.1663 27.1726C15.1519 25.8835 16.6399 24.0907 18.0898 22.2626C18.2452 22.0661 18.23 21.859 18.0755 21.6501C17.5579 20.9469 17.047 20.2389 16.537 19.53C16.3864 19.321 16.1957 19.1989 15.9336 19.2161C15.0147 19.2762 14.1186 19.0472 13.2064 19.0024C12.7726 18.9804 12.5181 19.0644 12.3904 19.5023C12.1559 20.3095 11.8518 21.0948 11.5706 21.8857C11.1302 23.1232 10.9014 24.3827 10.8585 25.7261H10.8595ZM11.5306 17.6084C11.8013 17.5998 11.9471 17.5235 12.032 17.3117C12.4085 16.368 12.8251 15.4416 13.295 14.5418C13.4304 14.2842 13.3865 14.0686 13.2664 13.8234C12.909 13.0982 12.5277 12.3798 12.2407 11.627C12.0692 11.1757 11.8051 11.0135 11.3819 11.0841C10.197 11.2816 9.01402 11.4867 7.85011 11.792C7.63754 11.8474 7.57653 11.9781 7.56319 12.1689C7.46691 13.5352 5.875 14.4054 4.64246 13.2642C4.46611 13.1001 4.33075 13.1163 4.14677 13.2547C3.41945 13.8024 3.38227 14.8481 4.11531 15.371C4.94654 15.9644 5.89311 16.3556 6.8597 16.6438C8.02265 16.9901 9.22564 17.1943 10.4277 17.3765C10.8185 17.4357 11.2036 17.5387 11.5306 17.6084ZM27.4716 25.8501C27.5012 24.1833 26.3125 20.6444 25.6843 19.2791C25.588 19.0701 25.4222 18.9814 25.1848 18.9957C24.1267 19.0606 23.082 19.2667 22.0191 19.2705C21.8237 19.2705 21.6921 19.3869 21.5997 19.5434C21.1555 20.2971 20.5873 20.9621 20.0678 21.6606C19.8991 21.8867 19.8724 22.0718 20.0592 22.297C20.3442 22.6385 20.6207 22.9878 20.8819 23.3465C21.1126 23.6633 21.3709 23.7606 21.7779 23.691C23.0534 23.4744 24.0886 24.6546 23.734 25.8864C23.6777 26.082 23.6386 26.2681 23.814 26.4121C24.4889 26.9712 25.1753 27.5122 26.0685 27.6888C26.6061 27.7956 27.0894 27.5409 27.2972 27.0294C27.4564 26.6383 27.4793 26.2261 27.4716 25.8492V25.8501ZM19.0793 18.0244V18.0225C19.5397 18.0225 20.0011 17.9948 20.4586 18.0301C20.9009 18.0645 21.1717 17.8832 21.3823 17.5139C21.9161 16.5779 22.4662 15.6515 23.0124 14.7221C23.1849 14.4292 23.2059 14.1506 23.0667 13.8205C22.6435 12.8225 21.9771 11.9647 21.4929 11.0039C21.4233 10.8656 21.3118 10.7873 21.1535 10.7826C20.6359 10.7663 20.1374 10.5955 19.6045 10.6604C19.1679 10.7139 18.719 10.691 18.2767 10.6165C17.7943 10.5354 17.3606 10.8303 16.883 10.8245C16.7744 10.8236 16.699 10.94 16.6428 11.0392C16.1061 11.9914 15.5771 12.9465 15.029 13.8921C14.8984 14.1182 14.9146 14.3052 15.0356 14.5132C15.5923 15.4721 16.1567 16.4262 16.6971 17.3937C16.9669 17.8765 17.3253 18.0988 17.8906 18.032C18.2814 17.9862 18.6827 18.0234 19.0793 18.0234V18.0244ZM19.045 9.34468C19.3767 9.34468 19.7084 9.34468 20.0392 9.34468C20.289 9.34468 20.4176 9.26358 20.247 9.00596C19.9239 8.51936 19.6007 8.03371 19.2728 7.54996C19.1603 7.38395 19.0345 7.34674 18.9077 7.54424C18.5846 8.04802 18.2595 8.54989 17.9364 9.05272C17.8115 9.24736 17.8658 9.34468 18.0975 9.34468C18.413 9.34468 18.7285 9.34468 19.045 9.34468ZM14.9041 17.9223C15.0785 17.9042 15.2482 17.97 15.3426 17.8412C15.4465 17.699 15.3102 17.5712 15.2425 17.4548C14.9584 16.9605 14.6629 16.473 14.3779 15.9787C14.2502 15.7574 14.1215 15.6887 13.9871 15.9606C13.7488 16.4415 13.4885 16.9128 13.3227 17.4281C13.235 17.699 13.3484 17.8221 13.6153 17.825C14.0586 17.8307 14.5018 17.8402 14.9041 17.9223ZM23.2288 17.8975C23.6997 17.8517 24.1715 17.8049 24.6424 17.761C24.9055 17.7362 24.9665 17.6017 24.8569 17.3737C24.6443 16.9319 24.4193 16.4968 24.2182 16.0503C24.0686 15.7173 23.9275 15.7631 23.7759 16.035C23.5061 16.5169 23.2726 17.0216 22.9685 17.4805C22.6978 17.8879 22.9456 17.8832 23.2288 17.8975ZM19.1393 19.2772C18.882 19.2772 18.677 19.2705 18.4721 19.2781C18.0641 19.2943 18.0002 19.4155 18.2242 19.7695C18.3844 20.0233 18.5579 20.2685 18.7361 20.5099C19.0021 20.8706 19.1622 20.8696 19.4196 20.5128C19.493 20.4107 19.5721 20.3067 19.6198 20.1912C19.737 19.9059 20.1688 19.6607 20.0201 19.4002C19.8562 19.1121 19.4072 19.3325 19.1403 19.2762L19.1393 19.2772ZM15.2597 10.8159C14.6362 10.7139 14.0919 10.8703 13.5419 10.9562C13.378 10.982 13.3865 11.0812 13.4209 11.1986C13.5553 11.6565 13.7593 12.0811 14.0233 12.4771C14.1243 12.6288 14.2435 12.665 14.3455 12.4799C14.6486 11.9342 14.947 11.3856 15.2597 10.8159ZM23.5776 10.8035C23.4585 10.899 22.9275 10.5793 23.1153 11.1146C23.2898 11.6126 23.631 12.0534 23.9008 12.5181C23.9971 12.6841 24.0972 12.728 24.1944 12.5143C24.3831 12.0964 24.5719 11.6785 24.7635 11.2615C24.8254 11.126 24.8397 10.9877 24.6558 10.9829C24.3031 10.9734 24.0018 10.7234 23.5786 10.8035H23.5776Z" fill="url(#paint0_linear_384_148)"/>
<path d="M7.31699 25.9429C7.41994 26.4934 7.4066 26.9142 7.25598 27.3168C7.04627 27.8788 6.85848 28.4455 6.68976 29.0228C6.59062 29.3625 6.7317 29.6306 6.70692 29.934C6.61445 31.0847 6.3628 32.2821 7.04532 33.3259C7.67922 34.2963 8.19493 35.3735 9.17676 36.0814C9.32928 36.1912 9.45892 36.382 9.6715 36.2789C9.89169 36.1721 9.79256 35.9421 9.80495 35.7628C9.82973 35.4031 9.60763 35.1044 9.51993 34.7285C9.67054 34.863 9.79256 34.9718 9.93268 35.0968C10.0499 34.926 9.94794 34.7667 9.91553 34.6073C9.79923 34.0291 9.65434 33.4127 9.90599 32.8756C10.1967 32.2544 10.8001 31.9529 11.4817 31.868C12.1337 31.7869 12.495 32.2182 12.8305 32.6781C13.6236 33.7648 13.9449 35.051 14.351 36.299C14.6789 37.3065 15.1593 38.1328 16.1764 38.6633C17.3298 39.2644 17.8265 40.4113 17.9294 41.6583C17.9904 42.3959 18.2926 43.0294 18.4842 43.7116C19.0371 45.68 19.61 47.6474 19.5709 49.7226C19.5585 50.359 19.4517 50.983 19.2335 51.586C19.1372 51.8513 18.9885 52.0936 18.6901 51.9639C18.4089 51.8408 17.9742 51.8503 18.0953 51.2626C18.5862 48.8878 18.4861 46.4938 18.2097 44.1009C18.1878 43.9129 18.1258 43.7297 18.0753 43.5456C18.0638 43.5046 18.0219 43.4721 17.9685 43.4025C17.7626 43.6992 17.6558 44.0408 17.4023 44.2784C17.3336 44.3423 17.2517 44.4291 17.1573 44.3614C17.0534 44.2869 17.1277 44.182 17.1764 44.1085C17.6987 43.3118 17.6158 42.4579 17.4471 41.5829C17.3775 41.2223 17.2164 41.2299 17.0086 41.4255C16.8618 41.5639 16.776 41.6106 16.633 41.436C16.5415 41.3234 16.4366 41.3978 16.3394 41.4627C16.2536 41.5209 16.1087 41.5381 16.1259 41.4102C16.2002 40.8559 15.715 40.6527 15.4491 40.3388C14.9219 39.7167 14.4577 39.0631 14.1355 38.316C14.0164 38.0393 13.8858 37.9897 13.6332 38.1519C13.4749 38.253 13.2919 38.3236 13.1108 38.378C12.433 38.5822 12.1804 38.4515 11.7515 37.7006C11.8563 37.5861 11.9593 37.6662 12.046 37.7187C12.3101 37.8781 12.597 37.8628 12.8801 37.8323C13.6179 37.7502 13.7599 37.5603 13.595 36.8467C13.4263 36.1139 13.291 35.3878 13.4111 34.6254C13.4606 34.3115 13.2948 33.8593 13.087 33.7734C12.7314 33.6274 12.7895 33.3336 12.6551 33.1217C12.474 32.8355 12.2214 32.8136 11.9488 32.888C11.6028 32.9824 11.2672 33.1131 10.8202 33.2639C11.2806 32.8116 11.8039 32.7391 12.3167 32.555C11.9088 32.1294 11.475 32.1476 11.0241 32.3279C10.4207 32.5683 10.0852 33.0425 10.1195 33.6494C10.1739 34.6092 10.4322 35.5252 10.7858 36.4154C10.9565 36.8447 11.1547 37.2627 11.4197 37.6414C11.9049 38.3332 12.1776 39.0793 12.2519 39.9361C12.3349 40.8979 12.5913 41.8358 13.1136 42.7937C12.6227 42.5953 12.4864 42.2384 12.3301 41.9112C12.128 41.4885 12.1204 41.0171 12.0374 40.5658C12.0231 40.4876 12.0212 40.4075 12.0098 40.3292C11.9774 40.104 11.8477 39.9552 11.6428 39.8674C11.5437 39.8254 11.4579 39.8522 11.3826 39.9256C11.1757 40.1289 11.5074 40.2472 11.456 40.479C10.6867 40.0144 10.0671 39.4066 9.44748 38.8055C9.26446 38.628 9.12529 38.4658 8.75257 38.7969C9.03568 38.1929 8.79261 37.8905 8.49138 37.6166C8.32647 37.4668 8.31122 37.2493 8.20732 37.0728C7.88226 36.5203 7.47809 36.0118 7.31413 35.3716C7.13206 34.6579 6.5401 34.1112 6.51532 33.3183C6.50483 32.9929 6.18454 32.8822 5.78418 32.9653C5.94528 32.6819 6.24555 32.6437 6.27033 32.3727C6.29226 32.1285 6.10542 31.9577 6.07682 31.7459C5.97387 30.994 5.80706 30.2393 5.98913 29.4808C6.02154 29.3472 6.03012 29.2909 5.92049 29.2174C5.82708 29.1545 5.80515 29.06 5.90524 28.9827C6.36756 28.623 6.32085 27.9341 6.8337 27.5897C7.10918 27.4046 7.10728 27.0334 7.1578 26.7205C7.19212 26.5068 7.14731 26.2797 7.31222 25.9467L7.31699 25.9429Z" fill="url(#paint1_linear_384_148)"/>
<path d="M4.29914 24.2129C4.66423 24.5783 4.56224 25.0306 4.50409 25.459C4.42211 26.0668 4.3001 26.6688 4.20001 27.2747C4.18666 27.3577 4.1247 27.4827 4.26483 27.5104C4.38017 27.5333 4.4183 27.4264 4.45166 27.3329C4.74526 26.5124 5.2438 25.7844 5.45542 24.919C5.61747 24.2578 6.11411 24.3894 6.66032 24.7778C6.86813 24.9256 6.99967 25.1814 7.06735 25.4561C7.00635 25.4609 6.97012 25.4752 6.95011 25.4638C6.69845 25.3197 6.54212 24.8884 6.22755 25.023C5.97017 25.1327 6.24089 25.5573 6.05215 25.8149C5.85102 25.6785 5.99115 25.4495 5.88152 25.2739C5.71185 26.1908 5.25524 26.9761 4.88348 27.7918C4.44117 28.7641 4.46691 29.8404 4.14853 30.8374C4.06655 31.095 3.99887 31.3593 3.89115 31.6055C3.65856 32.1369 3.71195 32.6608 3.8883 33.1865C4.46119 34.8887 4.93114 36.6214 5.25429 38.3846C5.42206 39.2996 5.87676 39.9541 6.57358 40.5056C7.31043 41.0895 7.84043 41.9025 8.64878 42.4091C10.2121 43.389 11.0252 44.8717 11.5114 46.5949C11.7697 47.5118 12.0976 48.4087 12.3845 49.3179C12.436 49.482 12.5847 49.7292 12.3178 49.7998C12.0795 49.8627 11.846 49.732 11.7764 49.4534C11.7192 49.2225 11.6829 48.9859 11.641 48.7512C11.2702 46.6874 10.6296 44.7372 9.02055 43.2869C7.76227 42.1524 6.56118 40.9474 5.17517 39.957C4.46405 39.4494 4.04844 38.729 3.78344 37.9085C3.56896 37.2444 3.34685 36.5832 3.1238 35.922C2.88072 35.2007 2.3593 34.6969 1.79212 34.2313C1.54713 34.0299 1.30406 33.8258 1.05812 33.6263C0.465207 33.1445 0.314594 32.4843 0.270745 31.7629C0.203065 30.6561 0.107741 29.5513 0.0171832 28.4454C-0.0543099 27.5657 0.107741 26.7051 0.206878 25.8387C0.255493 25.4142 0.323174 24.9915 0.353677 24.5659C0.374649 24.2807 0.396573 24.0001 0.723535 23.9257C1.08672 23.8437 1.4032 23.9467 1.6539 24.3016C1.55857 24.3312 1.50138 24.3675 1.44704 24.3627C1.0953 24.3322 0.969471 24.4429 1.13915 24.793C1.18776 24.8932 1.24114 25.0363 1.10102 25.126C1.09149 25.1317 1.0076 25.0211 0.9485 24.9533C0.670153 26.5248 0.562437 28.0895 0.654901 29.6524C0.714956 30.6619 0.861755 31.6694 0.93992 32.6818C0.991395 33.3468 1.60052 33.6492 2.11336 34.0032C2.03996 33.8458 1.96275 33.6903 1.89411 33.5319C1.42417 32.4461 1.28499 31.3116 1.32598 30.1342C1.36697 28.9626 1.34314 27.788 1.53188 26.6269C1.61767 26.0964 1.76543 25.5792 1.99135 25.0888C2.03138 25.002 2.11145 24.9113 2.05807 24.8245C1.64437 24.1614 2.18676 23.5174 2.09716 22.8514C2.05903 22.568 2.65003 22.3734 3.01131 22.5604C3.55561 22.8418 3.97313 23.2655 4.20858 23.8465C4.02652 23.8294 3.94835 23.6805 3.84635 23.5612C3.67668 23.3647 3.47078 23.2158 3.22675 23.1319C2.96937 23.0432 2.81304 23.0918 2.89978 23.4162C2.94745 23.5918 3.02085 23.7731 2.84926 23.9744C2.773 23.8418 2.71486 23.7397 2.6405 23.6099C2.53088 24.1452 2.43556 24.6404 2.32593 25.1327C2.13338 25.999 1.92081 26.8558 1.84741 27.7489C1.77305 28.6534 1.87696 29.5589 1.77401 30.4577C1.61672 31.823 1.91127 33.0758 2.64718 34.2265C3.36878 35.3543 4.02461 36.5059 4.28294 37.8484C4.37159 38.3102 4.60227 38.7347 4.99691 39.125C4.91875 38.6536 4.83677 38.2653 4.79197 37.8732C4.61848 36.3313 3.94644 34.9249 3.56038 33.4403C3.38594 32.7705 3.27822 32.2009 3.54036 31.5702C3.78058 30.992 4.01889 30.4119 3.5213 29.8375C3.47459 29.7841 3.46506 29.6887 3.45934 29.6114C3.36306 28.1659 3.43074 26.7318 4.01508 25.3874C4.18571 24.9953 4.29914 24.626 4.29819 24.21L4.29914 24.2129Z" fill="url(#paint2_linear_384_148)"/>
<path d="M33.476 22.6941C33.5742 22.1464 33.9297 21.7333 34.3263 21.4184C34.6809 21.136 35.1127 21.4518 35.5007 21.551C35.7761 21.6216 35.677 21.884 35.7027 22.0767C35.717 22.1865 35.6932 22.3324 35.7542 22.3983C36.0526 22.7179 36.1965 23.0099 35.7695 23.3438C35.6865 23.4087 35.7723 23.5585 35.8133 23.6577C36.4758 25.2378 36.5254 26.9333 36.7589 28.5953C36.9067 29.6439 36.9887 30.6763 36.656 31.702C36.573 31.9567 36.4825 32.2096 36.391 32.4758C37.0973 32.1304 37.4577 31.5827 37.4596 30.8509C37.4624 29.5628 37.4672 28.2748 37.4596 26.9867C37.4519 25.8646 37.104 24.7941 36.9162 23.7007C36.8971 23.5881 36.6074 23.5098 36.6874 23.2694C36.7361 23.1225 36.7446 22.9269 36.9563 22.9383C37.1212 22.9479 37.2622 23.0471 37.2927 23.2284C37.472 24.2903 37.8609 25.3122 37.859 26.4094C37.8561 27.8855 37.8866 29.3615 37.9953 30.8337C38.0363 31.3814 37.8018 31.7707 37.4109 32.117C36.961 32.5168 36.4911 32.907 36.1098 33.3669C35.6236 33.9528 35.4663 34.7018 35.2938 35.4307C35.0822 36.3228 34.9506 37.2397 34.4082 38.025C34.2624 38.2368 34.1223 38.4534 33.924 38.6042C32.9202 39.3665 32.1176 40.3321 31.2387 41.2213C30.5943 41.8739 29.9137 42.4941 29.4247 43.2813C28.5935 44.6171 28.2427 46.1065 28.053 47.6455C28.0177 47.9288 27.9872 48.2122 27.9472 48.4946C27.9224 48.675 27.8404 48.8267 27.685 48.9297C27.5802 48.9994 27.4725 49.1196 27.3457 49.0585C27.1817 48.9784 27.2504 48.8114 27.2761 48.6769C27.4772 47.6474 27.7041 46.6236 27.9853 45.6132C28.0577 45.3527 28.1416 45.0951 28.1979 44.8317C28.4905 43.4597 29.2798 42.4216 30.3303 41.5352C30.9079 41.0486 31.4913 40.5668 31.8564 39.8617C32.0137 39.5573 32.3731 39.3579 32.6419 39.1117C33.2224 38.5813 33.475 37.9191 33.5694 37.1396C33.782 35.3916 34.1013 33.6608 34.5484 31.9558C34.7161 31.3165 34.7037 30.6963 34.3854 30.1029C34.0517 29.4808 33.8506 28.8186 33.7181 28.124C33.577 27.3865 33.2872 26.6947 32.9117 26.044C32.557 25.4295 32.1405 24.8456 32.0147 24.1081C31.8183 24.2817 31.9918 24.4687 31.9088 24.6815C31.6801 24.5203 31.7287 24.296 31.7287 24.1004C31.7287 23.7884 31.5952 23.7837 31.3779 23.9287C31.0957 24.1167 30.9566 24.4277 30.7402 24.7473C30.7383 24.152 31.233 23.4488 31.6915 23.3524C32.0699 23.2732 32.3168 23.4068 32.4484 23.8056C32.7153 24.6185 33.1461 25.3504 33.6514 26.1385C33.8058 25.5937 33.6685 25.1729 33.5322 24.7588C33.3873 24.3189 33.2481 23.8819 33.2739 23.4106C33.2834 23.2322 33.2844 23.0557 33.4779 22.9641C33.4264 23.6787 33.6771 24.3399 33.8306 25.0193C33.9316 25.4668 33.8773 25.9925 34.5665 26.0774C34.3472 26.3083 33.9764 26.1633 33.9821 26.5325C33.9974 27.5782 33.924 28.6354 34.4921 29.5905C34.6456 29.8491 34.7619 30.1296 34.8915 30.4025C35.127 30.8996 35.1832 31.4005 34.9411 31.9176C34.7714 32.2802 34.6818 32.6742 34.6561 33.0683C34.6141 33.7104 34.4578 34.3211 34.25 34.9222C33.9278 35.8582 34.0594 36.8409 33.9135 37.797C34.3005 37.3552 34.4854 36.84 34.5569 36.2808C34.6256 35.7418 34.7762 35.2256 34.9544 34.7142C35.2223 33.9442 35.657 33.2563 36.0049 32.5264C36.4444 31.6037 36.6865 30.6248 36.5692 29.6172C36.3748 27.9351 36.2833 26.2348 35.8057 24.5928C35.5531 23.7255 35.1603 22.8935 35.1489 21.8649C35.0593 22.1731 35.0002 22.3754 34.9373 22.5929C34.7609 22.4813 34.8334 22.3391 34.8029 22.2256C34.7571 22.0529 34.9687 21.7981 34.7333 21.717C34.5198 21.6436 34.3367 21.8458 34.1566 21.9823C33.8878 22.1836 33.7886 22.5395 33.4779 22.6931L33.476 22.6941Z" fill="url(#paint3_linear_384_148)"/>
<path d="M28.5323 34.5041C28.7373 34.4411 28.66 34.1787 28.8364 34.2388C29.0118 34.2989 28.8812 34.4545 28.8726 34.5699C28.8545 34.8285 28.6906 35.1739 28.9613 35.3122C29.2482 35.4582 29.456 35.1682 29.6581 34.9525C30.6218 33.9259 31.2548 32.7103 31.7533 31.4098C31.8973 31.0349 31.7295 30.6694 31.7304 30.1714C32.1337 30.7372 31.8667 31.5606 32.7056 31.6961C31.8877 31.7352 31.8839 31.7333 31.555 32.5376C31.4111 32.8907 31.29 33.2532 31.1451 33.6053C30.9392 34.1043 30.8773 34.6033 31.1938 35.1443C30.7896 35.1147 30.7915 34.7731 30.5875 34.6272C30.1805 35.0947 30.2424 35.6634 30.2205 36.2072C29.9641 36.2454 30.0356 35.9677 29.8916 35.9162C29.5933 36.3236 29.6018 36.4553 30.026 37.6985C29.7248 37.4981 29.5561 37.6451 29.3912 37.8502C28.9527 38.396 28.4704 38.9017 27.9461 39.3663C27.8345 39.4646 27.7411 39.601 27.4532 39.622C28.0204 38.9809 28.6029 38.4723 28.9984 37.7806C28.7201 37.7863 28.682 38.1059 28.4141 38.1269C28.4398 37.6537 28.7201 37.3417 28.9994 37.023C29.0909 36.919 29.3149 36.8198 29.1538 36.6404C29.0213 36.4925 28.8574 36.6222 28.7239 36.7005C28.3684 36.9094 28.03 37.1566 27.6591 37.3312C27.2407 37.5287 27.1148 37.8855 27.0386 38.2805C26.99 38.5315 26.9919 38.7643 27.3608 38.5448C27.4733 38.4771 27.6496 38.3626 27.7354 38.5334C27.8117 38.6841 27.601 38.7156 27.5104 38.7853C27.1063 39.0953 26.8985 39.4722 26.9242 40.0094C26.9576 40.7002 26.8537 41.3767 26.3818 41.9358C26.3322 41.9949 26.2855 42.0636 26.1521 42.0379C26.2903 41.4406 26.5477 40.8748 26.6125 40.2632C26.6678 39.7432 26.7536 39.2222 26.7631 38.7013C26.7745 38.0706 27.0043 37.5296 27.2998 36.9963C28.0214 35.6901 28.3379 34.278 28.3884 32.7962C28.4093 32.1808 28.028 31.8096 27.5428 31.5816C27.1368 31.3908 26.6783 31.3889 26.2703 31.6636C26.2045 31.7075 26.1444 31.7571 26.1483 31.8764C26.6601 31.9947 27.2006 32.0453 27.6296 32.4441C27.3732 32.3735 27.1177 32.3 26.8603 32.2333C26.1559 32.0482 26.1073 32.2132 25.6993 32.7847C24.8423 33.9822 24.7518 35.4086 24.3161 36.7301C24.1341 37.2815 23.9129 37.8206 23.5106 38.23C22.851 38.9017 22.831 39.6945 22.9416 40.5361C22.9654 40.7193 23.0502 40.9006 22.9158 41.1296C22.403 40.6678 22.4096 40.0237 22.2209 39.3386C21.9797 39.9388 22.1675 40.4369 22.2228 40.9597C21.9559 40.891 21.9816 40.6095 21.7262 40.4483C21.6633 41.6925 21.4116 42.8823 22.28 43.9795C21.7948 43.8784 21.7719 43.8555 21.2905 43.0426C21.0703 43.3489 21.0475 43.6866 21.0274 44.0225C20.894 46.2733 21.1819 48.4926 21.5374 50.7061C21.6023 51.1097 21.5794 51.4055 21.1294 51.6364C20.6976 51.8578 20.6643 51.6765 20.5775 51.3464C19.9417 48.92 20.0942 46.5099 20.6671 44.0978C20.9178 43.0416 21.2162 42.0073 21.2276 40.8891C21.24 39.6373 21.9835 38.6793 23.0035 38.0096C23.5755 37.6336 23.9377 37.1632 24.1159 36.5364C24.3667 35.6548 24.5916 34.7655 24.8137 33.8763C25.0282 33.0156 25.379 32.2285 25.9719 31.5596C26.4133 31.0616 27.0109 30.9585 27.6143 31.2371C28.7725 31.7724 28.8278 32.4069 28.6934 33.4765C28.6524 33.8028 28.5943 34.1262 28.5361 34.5022L28.5323 34.5041Z" fill="url(#paint4_linear_384_148)"/>
<path d="M25.9432 34.1168C26.2311 34.2036 26.4971 34.2876 26.7649 34.3639C26.9203 34.4088 27.0776 34.4135 27.2301 34.3448C27.3273 34.3009 27.4665 34.2952 27.4798 34.1588C27.4941 34.0128 27.3512 33.9956 27.2577 33.9479C26.8097 33.7208 26.3178 33.675 25.8326 33.6006C25.7602 33.5892 25.6715 33.6168 25.6182 33.4794C26.0738 33.2924 26.5075 33.4222 26.9365 33.5519C27.1329 33.6111 27.3292 33.6884 27.5027 33.7952C27.7344 33.9374 27.8526 33.8344 27.9565 33.6435C28.0527 33.467 28.149 33.2896 28.2739 33.0615C28.2739 33.7199 27.8221 34.424 27.3426 34.5843C26.9193 34.7255 26.2626 34.5147 25.9432 34.1187V34.1168Z" fill="url(#paint5_linear_384_148)"/>
<path d="M12.657 34.8038C12.2957 35.3037 11.7676 35.4545 11.2386 35.3247C10.6123 35.1711 10.4083 34.5843 10.1528 34.0071C10.2653 34.0262 10.3054 34.0204 10.3158 34.0357C10.631 34.4861 11.0384 34.598 11.5379 34.3716C12.1184 34.1082 12.3663 34.0729 12.9353 34.2036C12.3729 34.3553 11.8572 34.4383 11.4083 34.7055C11.3043 34.7675 11.1347 34.7971 11.1671 34.9555C11.1995 35.1129 11.3654 35.0805 11.4864 35.0938C11.9106 35.1406 12.2871 34.9965 12.657 34.8038Z" fill="url(#paint6_linear_384_148)"/>
<path d="M25.2122 37.4162C25.4019 37.315 25.5715 37.5545 25.7689 37.4324C25.5039 37.3017 25.2055 37.2406 24.9634 36.9839C25.2227 36.8914 25.3923 37.0574 25.582 37.0765C25.9748 37.1147 26.3723 37.1891 26.7402 36.961C26.8355 36.9019 26.9642 36.8341 27.0405 36.941C27.1244 37.0584 26.9785 37.1271 26.9128 37.2101C26.4161 37.8379 25.8775 37.9066 25.2122 37.4171V37.4162Z" fill="url(#paint7_linear_384_148)"/>
<path d="M20.798 14.2414C20.7989 15.2222 20.0087 16.0246 19.0564 16.0094C18.0803 15.9932 17.2719 15.1783 17.27 14.208C17.2681 13.3102 18.1318 12.46 19.0583 12.4476C19.9696 12.4362 20.797 13.2882 20.798 14.2414Z" fill="url(#paint8_linear_384_148)"/>
</g>
<path d="M64.6566 17L64.622 5H62.3199L57.8543 12.4571L53.3194 5H51V17H53.6309V9.95429L57.1792 15.7314H58.4428L62.0084 9.8L62.0257 17H64.6566Z" fill="url(#paint9_linear_384_148)"/>
<path d="M83.7841 17L83.7495 5H81.4474L76.9818 12.4571L72.4469 5H70.1275V17H72.7584V9.95429L76.3067 15.7314H77.5703L81.1359 9.8L81.1532 17H83.7841Z" fill="url(#paint10_linear_384_148)"/>
<path d="M94.4996 5H89.255V17H92.059V13.6914H94.4996C97.7363 13.6914 99.7614 12.0286 99.7614 9.35429C99.7614 6.66286 97.7363 5 94.4996 5ZM94.3438 11.4286H92.059V7.26286H94.3438C96.0573 7.26286 96.9228 8.03429 96.9228 9.35429C96.9228 10.6571 96.0573 11.4286 94.3438 11.4286Z" fill="url(#paint11_linear_384_148)"/>
<path d="M112.804 17H115.746L110.328 5H107.559L102.159 17H105.032L106.105 14.4286H111.73L112.804 17ZM107.005 12.32L108.926 7.72571L110.848 12.32H107.005Z" fill="url(#paint12_linear_384_148)"/>
<path d="M129.058 17H132L126.582 5H123.813L118.413 17H121.286L122.359 14.4286H127.984L129.058 17ZM123.259 12.32L125.18 7.72571L127.102 12.32H123.259Z" fill="url(#paint13_linear_384_148)"/>
<line x1="45" y1="-4.37114e-08" x2="45" y2="52" stroke="url(#paint14_linear_384_148)" stroke-width="2"/>
<path d="M88.3846 38.9155H89.3417L87.1177 33H86.2169L84 38.9155H84.9431L85.4287 37.5465H87.8919L88.3846 38.9155ZM85.7383 36.6845L86.6603 34.0986L87.5893 36.6845H85.7383Z" fill="url(#paint15_linear_384_148)"/>
<path d="M89.9682 38.9155H93.459V37.9859H90.8831V33H89.9682V38.9155Z" fill="url(#paint16_linear_384_148)"/>
<path d="M96.2309 39C97.5752 39 98.3845 38.062 98.3845 36.338V33H97.4837V36.2958C97.4837 37.5127 97.0332 38.0366 96.238 38.0366C95.4427 38.0366 94.9852 37.5127 94.9852 36.2958V33H94.0703V36.338C94.0703 38.062 94.8797 39 96.2309 39Z" fill="url(#paint17_linear_384_148)"/>
<path d="M105.057 38.9155L105.05 33H104.297L102.375 36.9211L100.419 33H99.6658V38.9155H100.539V35.0451L102.157 38.2394H102.565L104.184 34.9944L104.191 38.9155H105.057Z" fill="url(#paint18_linear_384_148)"/>
<path d="M109.857 33V37.0056L107.141 33H106.387V38.9155H107.295V34.9099L110.012 38.9155H110.765V33H109.857Z" fill="url(#paint19_linear_384_148)"/>
<path d="M112.085 38.9155H113V33H112.085V38.9155Z" fill="url(#paint20_linear_384_148)"/>
<path d="M55.4801 46.9306H56.458L54.1857 42.0694H53.2652L51 46.9306H51.9636L52.4598 45.8056H54.9767L55.4801 46.9306ZM52.7762 45.0972L53.7182 42.9722L54.6675 45.0972H52.7762Z" fill="url(#paint21_linear_384_148)"/>
<path d="M58.6587 47C60.0394 47 60.6938 46.3333 60.6938 45.5556C60.6938 43.7708 57.7095 44.4444 57.7095 43.4097C57.7095 43.0417 58.0259 42.75 58.8025 42.75C59.2412 42.75 59.7374 42.875 60.1904 43.1319L60.4852 42.4306C60.0466 42.1528 59.4138 42 58.8097 42C57.429 42 56.7818 42.6667 56.7818 43.4514C56.7818 45.2569 59.7733 44.5694 59.7733 45.6181C59.7733 45.9792 59.4425 46.25 58.6587 46.25C58.0403 46.25 57.4003 46.0278 56.9975 45.7153L56.6739 46.4167C57.091 46.7639 57.8749 47 58.6587 47Z" fill="url(#paint22_linear_384_148)"/>
<path d="M63.1812 47C64.5619 47 65.2163 46.3333 65.2163 45.5556C65.2163 43.7708 62.232 44.4444 62.232 43.4097C62.232 43.0417 62.5484 42.75 63.325 42.75C63.7637 42.75 64.2599 42.875 64.7129 43.1319L65.0078 42.4306C64.5691 42.1528 63.9363 42 63.3322 42C61.9515 42 61.3043 42.6667 61.3043 43.4514C61.3043 45.2569 64.2958 44.5694 64.2958 45.6181C64.2958 45.9792 63.9651 46.25 63.1812 46.25C62.5628 46.25 61.9228 46.0278 61.5201 45.7153L61.1965 46.4167C61.6136 46.7639 62.3974 47 63.1812 47Z" fill="url(#paint23_linear_384_148)"/>
<path d="M68.4948 47C70.0552 47 71.2058 45.9444 71.2058 44.5C71.2058 43.0556 70.0552 42 68.4948 42C66.9343 42 65.7837 43.0625 65.7837 44.5C65.7837 45.9375 66.9343 47 68.4948 47ZM68.4948 46.2083C67.4808 46.2083 66.7258 45.4931 66.7258 44.5C66.7258 43.5069 67.4808 42.7917 68.4948 42.7917C69.5087 42.7917 70.2638 43.5069 70.2638 44.5C70.2638 45.4931 69.5087 46.2083 68.4948 46.2083Z" fill="url(#paint24_linear_384_148)"/>
<path d="M74.5266 47C75.3536 47 76.0584 46.7153 76.5258 46.1875L75.9217 45.6319C75.555 46.0208 75.1019 46.2083 74.577 46.2083C73.5343 46.2083 72.7792 45.5 72.7792 44.5C72.7792 43.5 73.5343 42.7917 74.577 42.7917C75.1019 42.7917 75.555 42.9792 75.9217 43.3611L76.5258 42.8125C76.0584 42.2847 75.3536 42 74.5338 42C72.9877 42 71.8372 43.0486 71.8372 44.5C71.8372 45.9514 72.9877 47 74.5266 47Z" fill="url(#paint25_linear_384_148)"/>
<path d="M77.4215 46.9306H78.3564V42.0694H77.4215V46.9306Z" fill="url(#paint26_linear_384_148)"/>
<path d="M83.4861 46.9306H84.464L82.1916 42.0694H81.2712L79.006 46.9306H79.9696L80.4658 45.8056H82.9827L83.4861 46.9306ZM80.7822 45.0972L81.7242 42.9722L82.6735 45.0972H80.7822Z" fill="url(#paint27_linear_384_148)"/>
<path d="M85.8725 46.9306H86.8074V42.8333H88.4757V42.0694H84.2042V42.8333H85.8725V46.9306Z" fill="url(#paint28_linear_384_148)"/>
<path d="M89.1773 46.9306H90.1122V42.0694H89.1773V46.9306Z" fill="url(#paint29_linear_384_148)"/>
<path d="M93.8252 47C95.3856 47 96.5362 45.9444 96.5362 44.5C96.5362 43.0556 95.3856 42 93.8252 42C92.2647 42 91.1141 43.0625 91.1141 44.5C91.1141 45.9375 92.2647 47 93.8252 47ZM93.8252 46.2083C92.8112 46.2083 92.0562 45.4931 92.0562 44.5C92.0562 43.5069 92.8112 42.7917 93.8252 42.7917C94.8391 42.7917 95.5942 43.5069 95.5942 44.5C95.5942 45.4931 94.8391 46.2083 93.8252 46.2083Z" fill="url(#paint30_linear_384_148)"/>
<path d="M101.072 42.0694V45.3611L98.2966 42.0694H97.5271V46.9306H98.4548V43.6389L101.231 46.9306H102V42.0694H101.072Z" fill="url(#paint31_linear_384_148)"/>
<path d="M56.4229 29.9306L56.4158 25.0694H55.6583L53.7256 28.2917L51.7575 25.0694H51V29.9306H51.8779V26.75L53.5061 29.375H53.9167L55.545 26.7083L55.5521 29.9306H56.4229Z" fill="url(#paint32_linear_384_148)"/>
<path d="M61.4711 29.9306H62.4339L60.1968 25.0694H59.2906L57.0606 29.9306H58.0092L58.4977 28.8056H60.9755L61.4711 29.9306ZM58.8092 28.0972L59.7366 25.9722L60.6711 28.0972H58.8092Z" fill="url(#paint33_linear_384_148)"/>
<path d="M64.6004 30C65.9597 30 66.6039 29.3333 66.6039 28.5556C66.6039 26.7708 63.6659 27.4444 63.6659 26.4097C63.6659 26.0417 63.9774 25.75 64.742 25.75C65.1738 25.75 65.6623 25.875 66.1083 26.1319L66.3986 25.4306C65.9667 25.1528 65.3437 25 64.7491 25C63.3898 25 62.7526 25.6667 62.7526 26.4514C62.7526 28.2569 65.6977 27.5694 65.6977 28.6181C65.6977 28.9792 65.3721 29.25 64.6004 29.25C63.9916 29.25 63.3615 29.0278 62.965 28.7153L62.6465 29.4167C63.0571 29.7639 63.8287 30 64.6004 30Z" fill="url(#paint34_linear_384_148)"/>
<path d="M68.4526 29.9306H69.373V25.8333H71.0154V25.0694H66.8102V25.8333H68.4526V29.9306Z" fill="url(#paint35_linear_384_148)"/>
<path d="M72.6264 29.1736V27.8333H75.0193V27.0903H72.6264V25.8264H75.3237V25.0694H71.7061V29.9306H75.4228V29.1736H72.6264Z" fill="url(#paint36_linear_384_148)"/>
<path d="M80.6823 29.9306L79.5425 28.3333C80.2151 28.0764 80.5974 27.5347 80.5974 26.7986C80.5974 25.7222 79.7903 25.0694 78.4877 25.0694H76.4488V29.9306H77.3691V28.5139H78.4877C78.5514 28.5139 78.6151 28.5139 78.6788 28.5069L79.6912 29.9306H80.6823ZM79.6699 26.7986C79.6699 27.4097 79.2523 27.7708 78.4452 27.7708H77.3691V25.8333H78.4452C79.2523 25.8333 79.6699 26.1875 79.6699 26.7986Z" fill="url(#paint37_linear_384_148)"/>
<path d="M83.5836 29.9306H84.5039V25.0694H83.5836V29.9306Z" fill="url(#paint38_linear_384_148)"/>
<path d="M89.3345 25.0694V28.3611L86.6018 25.0694H85.8443V29.9306H86.7576V26.6389L89.4902 29.9306H90.2477V25.0694H89.3345Z" fill="url(#paint39_linear_384_148)"/>
<path d="M98.955 29.9306L98.948 25.0694H98.1905L96.2578 28.2917L94.2897 25.0694H93.5322V29.9306H94.41V26.75L96.0383 29.375H96.4489L98.0772 26.7083L98.0843 29.9306H98.955Z" fill="url(#paint40_linear_384_148)"/>
<path d="M101.214 29.1736V27.8333H103.607V27.0903H101.214V25.8264H103.911V25.0694H100.294V29.9306H104.01V29.1736H101.214Z" fill="url(#paint41_linear_384_148)"/>
<path d="M105.036 29.9306H107.203C108.81 29.9306 109.907 28.9583 109.907 27.5C109.907 26.0417 108.81 25.0694 107.203 25.0694H105.036V29.9306ZM105.957 29.1667V25.8333H107.16C108.265 25.8333 108.98 26.4931 108.98 27.5C108.98 28.5069 108.265 29.1667 107.16 29.1667H105.957Z" fill="url(#paint42_linear_384_148)"/>
<path d="M110.885 29.9306H111.806V25.0694H110.885V29.9306Z" fill="url(#paint43_linear_384_148)"/>
<path d="M115.44 30C116.254 30 116.948 29.7153 117.408 29.1875L116.813 28.6319C116.452 29.0208 116.006 29.2083 115.489 29.2083C114.463 29.2083 113.719 28.5 113.719 27.5C113.719 26.5 114.463 25.7917 115.489 25.7917C116.006 25.7917 116.452 25.9792 116.813 26.3611L117.408 25.8125C116.948 25.2847 116.254 25 115.447 25C113.925 25 112.792 26.0486 112.792 27.5C112.792 28.9514 113.925 30 115.44 30Z" fill="url(#paint44_linear_384_148)"/>
<path d="M121.896 29.9306H122.858L120.621 25.0694H119.715L117.485 29.9306H118.434L118.922 28.8056H121.4L121.896 29.9306ZM119.234 28.0972L120.161 25.9722L121.096 28.0972H119.234Z" fill="url(#paint45_linear_384_148)"/>
<path d="M123.489 29.9306H127V29.1667H124.409V25.0694H123.489V29.9306Z" fill="url(#paint46_linear_384_148)"/>
<path d="M53.0558 33.0833H51V38.9167H51.928V37.2333H53.0558C54.3693 37.2333 55.183 36.4417 55.183 35.1583C55.183 33.8667 54.3693 33.0833 53.0558 33.0833ZM53.013 36.3167H51.928V34H53.013C53.8268 34 54.2479 34.425 54.2479 35.1583C54.2479 35.8917 53.8268 36.3167 53.013 36.3167Z" fill="url(#paint47_linear_384_148)"/>
<path d="M59.6218 33.0833V35.4917H57.0377V33.0833H56.1097V38.9167H57.0377V36.4167H59.6218V38.9167H60.5498V33.0833H59.6218Z" fill="url(#paint48_linear_384_148)"/>
<path d="M66.0003 33.0833H65.0866L63.609 35.925L62.1457 33.0833H61.1534L63.1165 36.875V38.9167H64.0445V36.8583L66.0003 33.0833Z" fill="url(#paint49_linear_384_148)"/>
<path d="M68.0525 39C69.423 39 70.0726 38.2 70.0726 37.2667C70.0726 35.125 67.1102 35.9333 67.1102 34.6917C67.1102 34.25 67.4243 33.9 68.1953 33.9C68.6307 33.9 69.1232 34.05 69.573 34.3583L69.8656 33.5167C69.4302 33.1833 68.802 33 68.2024 33C66.8319 33 66.1894 33.8 66.1894 34.7417C66.1894 36.9083 69.1589 36.0833 69.1589 37.3417C69.1589 37.775 68.8306 38.1 68.0525 38.1C67.4386 38.1 66.8033 37.8333 66.4036 37.4583L66.0823 38.3C66.4963 38.7167 67.2744 39 68.0525 39Z" fill="url(#paint50_linear_384_148)"/>
<path d="M70.9928 38.9167H71.9208V33.0833H70.9928V38.9167Z" fill="url(#paint51_linear_384_148)"/>
<path d="M75.5851 39C76.406 39 77.1056 38.6583 77.5696 38.025L76.97 37.3583C76.6059 37.825 76.1562 38.05 75.6351 38.05C74.6 38.05 73.8505 37.2 73.8505 36C73.8505 34.8 74.6 33.95 75.6351 33.95C76.1562 33.95 76.6059 34.175 76.97 34.6333L77.5696 33.975C77.1056 33.3417 76.406 33 75.5923 33C74.0575 33 72.9154 34.2583 72.9154 36C72.9154 37.7417 74.0575 39 75.5851 39Z" fill="url(#paint52_linear_384_148)"/>
<path d="M79.9799 39C81.3504 39 82 38.2 82 37.2667C82 35.125 79.0376 35.9333 79.0376 34.6917C79.0376 34.25 79.3517 33.9 80.1226 33.9C80.5581 33.9 81.0506 34.05 81.5003 34.3583L81.793 33.5167C81.3576 33.1833 80.7294 33 80.1298 33C78.7592 33 78.1168 33.8 78.1168 34.7417C78.1168 36.9083 81.0863 36.0833 81.0863 37.3417C81.0863 37.775 80.7579 38.1 79.9799 38.1C79.366 38.1 78.7307 37.8333 78.3309 37.4583L78.0097 38.3C78.4237 38.7167 79.2018 39 79.9799 39Z" fill="url(#paint53_linear_384_148)"/>
</g>
<defs>
<linearGradient id="paint0_linear_384_148" x1="19.1111" y1="0" x2="19.1111" y2="28.1145" gradientUnits="userSpaceOnUse">
<stop stop-color="#9E94EC"/>
<stop offset="0.505208" stop-color="#9FB5ED"/>
<stop offset="1" stop-color="#85C4D6"/>
</linearGradient>
<linearGradient id="paint1_linear_384_148" x1="12.6785" y1="25.9429" x2="12.6785" y2="51.9999" gradientUnits="userSpaceOnUse">
<stop stop-color="#9E94EC"/>
<stop offset="0.505208" stop-color="#9FB5ED"/>
<stop offset="1" stop-color="#85C4D6"/>
</linearGradient>
<linearGradient id="paint2_linear_384_148" x1="6.23597" y1="22.4866" x2="6.23597" y2="49.8153" gradientUnits="userSpaceOnUse">
<stop stop-color="#9E94EC"/>
<stop offset="0.505208" stop-color="#9FB5ED"/>
<stop offset="1" stop-color="#85C4D6"/>
</linearGradient>
<linearGradient id="paint3_linear_384_148" x1="32.6198" y1="21.3037" x2="32.6198" y2="49.0753" gradientUnits="userSpaceOnUse">
<stop stop-color="#9E94EC"/>
<stop offset="0.505208" stop-color="#9FB5ED"/>
<stop offset="1" stop-color="#85C4D6"/>
</linearGradient>
<linearGradient id="paint4_linear_384_148" x1="26.4351" y1="30.1714" x2="26.4351" y2="51.7338" gradientUnits="userSpaceOnUse">
<stop stop-color="#9E94EC"/>
<stop offset="0.505208" stop-color="#9FB5ED"/>
<stop offset="1" stop-color="#85C4D6"/>
</linearGradient>
<linearGradient id="paint5_linear_384_148" x1="26.946" y1="33.0615" x2="26.946" y2="34.6282" gradientUnits="userSpaceOnUse">
<stop stop-color="#9E94EC"/>
<stop offset="0.505208" stop-color="#9FB5ED"/>
<stop offset="1" stop-color="#85C4D6"/>
</linearGradient>
<linearGradient id="paint6_linear_384_148" x1="11.5441" y1="34.0071" x2="11.5441" y2="35.3689" gradientUnits="userSpaceOnUse">
<stop stop-color="#9E94EC"/>
<stop offset="0.505208" stop-color="#9FB5ED"/>
<stop offset="1" stop-color="#85C4D6"/>
</linearGradient>
<linearGradient id="paint7_linear_384_148" x1="26.0146" y1="36.8848" x2="26.0146" y2="37.739" gradientUnits="userSpaceOnUse">
<stop stop-color="#9E94EC"/>
<stop offset="0.505208" stop-color="#9FB5ED"/>
<stop offset="1" stop-color="#85C4D6"/>
</linearGradient>
<linearGradient id="paint8_linear_384_148" x1="19.034" y1="12.4475" x2="19.034" y2="16.0096" gradientUnits="userSpaceOnUse">
<stop stop-color="#9E94EC"/>
<stop offset="0.505208" stop-color="#9FB5ED"/>
<stop offset="1" stop-color="#85C4D6"/>
</linearGradient>
<linearGradient id="paint9_linear_384_148" x1="41.7091" y1="21.1905" x2="134.504" y2="0.0531725" gradientUnits="userSpaceOnUse">
<stop stop-color="#9E94EC"/>
<stop offset="0.5" stop-color="#9FB5ED"/>
<stop offset="1" stop-color="#85C4D6"/>
</linearGradient>
<linearGradient id="paint10_linear_384_148" x1="41.7091" y1="21.1905" x2="134.504" y2="0.0531725" gradientUnits="userSpaceOnUse">
<stop stop-color="#9E94EC"/>
<stop offset="0.5" stop-color="#9FB5ED"/>
<stop offset="1" stop-color="#85C4D6"/>
</linearGradient>
<linearGradient id="paint11_linear_384_148" x1="41.7091" y1="21.1905" x2="134.504" y2="0.0531725" gradientUnits="userSpaceOnUse">
<stop stop-color="#9E94EC"/>
<stop offset="0.5" stop-color="#9FB5ED"/>
<stop offset="1" stop-color="#85C4D6"/>
</linearGradient>
<linearGradient id="paint12_linear_384_148" x1="41.7091" y1="21.1905" x2="134.504" y2="0.0531725" gradientUnits="userSpaceOnUse">
<stop stop-color="#9E94EC"/>
<stop offset="0.5" stop-color="#9FB5ED"/>
<stop offset="1" stop-color="#85C4D6"/>
</linearGradient>
<linearGradient id="paint13_linear_384_148" x1="41.7091" y1="21.1905" x2="134.504" y2="0.0531725" gradientUnits="userSpaceOnUse">
<stop stop-color="#9E94EC"/>
<stop offset="0.5" stop-color="#9FB5ED"/>
<stop offset="1" stop-color="#85C4D6"/>
</linearGradient>
<linearGradient id="paint14_linear_384_148" x1="44" y1="0" x2="44.0001" y2="52" gradientUnits="userSpaceOnUse">
<stop stop-color="#9E94EC"/>
<stop offset="0.432292" stop-color="#9FB5ED"/>
<stop offset="1" stop-color="#85C4D6"/>
<stop offset="1" stop-color="#85C4D6"/>
</linearGradient>
<linearGradient id="paint15_linear_384_148" x1="31.8126" y1="35.5583" x2="157.089" y2="58.4457" gradientUnits="userSpaceOnUse">
<stop stop-color="#9E94EC"/>
<stop offset="0.546875" stop-color="#9FB5ED"/>
<stop offset="1" stop-color="#85C4D6"/>
</linearGradient>
<linearGradient id="paint16_linear_384_148" x1="31.8126" y1="35.5583" x2="157.089" y2="58.4457" gradientUnits="userSpaceOnUse">
<stop stop-color="#9E94EC"/>
<stop offset="0.546875" stop-color="#9FB5ED"/>
<stop offset="1" stop-color="#85C4D6"/>
</linearGradient>
<linearGradient id="paint17_linear_384_148" x1="31.8126" y1="35.5583" x2="157.089" y2="58.4457" gradientUnits="userSpaceOnUse">
<stop stop-color="#9E94EC"/>
<stop offset="0.546875" stop-color="#9FB5ED"/>
<stop offset="1" stop-color="#85C4D6"/>
</linearGradient>
<linearGradient id="paint18_linear_384_148" x1="31.8126" y1="35.5583" x2="157.089" y2="58.4457" gradientUnits="userSpaceOnUse">
<stop stop-color="#9E94EC"/>
<stop offset="0.546875" stop-color="#9FB5ED"/>
<stop offset="1" stop-color="#85C4D6"/>
</linearGradient>
<linearGradient id="paint19_linear_384_148" x1="31.8126" y1="35.5583" x2="157.089" y2="58.4457" gradientUnits="userSpaceOnUse">
<stop stop-color="#9E94EC"/>
<stop offset="0.546875" stop-color="#9FB5ED"/>
<stop offset="1" stop-color="#85C4D6"/>
</linearGradient>
<linearGradient id="paint20_linear_384_148" x1="31.8126" y1="35.5583" x2="157.089" y2="58.4457" gradientUnits="userSpaceOnUse">
<stop stop-color="#9E94EC"/>
<stop offset="0.546875" stop-color="#9FB5ED"/>
<stop offset="1" stop-color="#85C4D6"/>
</linearGradient>
<linearGradient id="paint21_linear_384_148" x1="-0.764242" y1="24.7084" x2="125.022" y2="53.2826" gradientUnits="userSpaceOnUse">
<stop stop-color="#9E94EC"/>
<stop offset="0.546875" stop-color="#9FB5ED"/>
<stop offset="1" stop-color="#85C4D6"/>
</linearGradient>
<linearGradient id="paint22_linear_384_148" x1="-0.764242" y1="24.7084" x2="125.022" y2="53.2826" gradientUnits="userSpaceOnUse">
<stop stop-color="#9E94EC"/>
<stop offset="0.546875" stop-color="#9FB5ED"/>
<stop offset="1" stop-color="#85C4D6"/>
</linearGradient>
<linearGradient id="paint23_linear_384_148" x1="-0.764242" y1="24.7084" x2="125.022" y2="53.2826" gradientUnits="userSpaceOnUse">
<stop stop-color="#9E94EC"/>
<stop offset="0.546875" stop-color="#9FB5ED"/>
<stop offset="1" stop-color="#85C4D6"/>
</linearGradient>
<linearGradient id="paint24_linear_384_148" x1="-0.764242" y1="24.7084" x2="125.022" y2="53.2826" gradientUnits="userSpaceOnUse">
<stop stop-color="#9E94EC"/>
<stop offset="0.546875" stop-color="#9FB5ED"/>
<stop offset="1" stop-color="#85C4D6"/>
</linearGradient>
<linearGradient id="paint25_linear_384_148" x1="-0.764242" y1="24.7084" x2="125.022" y2="53.2826" gradientUnits="userSpaceOnUse">
<stop stop-color="#9E94EC"/>
<stop offset="0.546875" stop-color="#9FB5ED"/>
<stop offset="1" stop-color="#85C4D6"/>
</linearGradient>
<linearGradient id="paint26_linear_384_148" x1="-0.764242" y1="24.7084" x2="125.022" y2="53.2826" gradientUnits="userSpaceOnUse">
<stop stop-color="#9E94EC"/>
<stop offset="0.546875" stop-color="#9FB5ED"/>
<stop offset="1" stop-color="#85C4D6"/>
</linearGradient>
<linearGradient id="paint27_linear_384_148" x1="-0.764242" y1="24.7084" x2="125.022" y2="53.2826" gradientUnits="userSpaceOnUse">
<stop stop-color="#9E94EC"/>
<stop offset="0.546875" stop-color="#9FB5ED"/>
<stop offset="1" stop-color="#85C4D6"/>
</linearGradient>
<linearGradient id="paint28_linear_384_148" x1="-0.764242" y1="24.7084" x2="125.022" y2="53.2826" gradientUnits="userSpaceOnUse">
<stop stop-color="#9E94EC"/>
<stop offset="0.546875" stop-color="#9FB5ED"/>
<stop offset="1" stop-color="#85C4D6"/>
</linearGradient>
<linearGradient id="paint29_linear_384_148" x1="-0.764242" y1="24.7084" x2="125.022" y2="53.2826" gradientUnits="userSpaceOnUse">
<stop stop-color="#9E94EC"/>
<stop offset="0.546875" stop-color="#9FB5ED"/>
<stop offset="1" stop-color="#85C4D6"/>
</linearGradient>
<linearGradient id="paint30_linear_384_148" x1="-0.764242" y1="24.7084" x2="125.022" y2="53.2826" gradientUnits="userSpaceOnUse">
<stop stop-color="#9E94EC"/>
<stop offset="0.546875" stop-color="#9FB5ED"/>
<stop offset="1" stop-color="#85C4D6"/>
</linearGradient>
<linearGradient id="paint31_linear_384_148" x1="-0.764242" y1="24.7084" x2="125.022" y2="53.2826" gradientUnits="userSpaceOnUse">
<stop stop-color="#9E94EC"/>
<stop offset="0.546875" stop-color="#9FB5ED"/>
<stop offset="1" stop-color="#85C4D6"/>
</linearGradient>
<linearGradient id="paint32_linear_384_148" x1="45.9534" y1="16.0417" x2="169.975" y2="43.7776" gradientUnits="userSpaceOnUse">
<stop stop-color="#9E94EC"/>
<stop offset="0.546875" stop-color="#9FB5ED"/>
<stop offset="1" stop-color="#85C4D6"/>
</linearGradient>
<linearGradient id="paint33_linear_384_148" x1="45.9534" y1="16.0417" x2="169.975" y2="43.7776" gradientUnits="userSpaceOnUse">
<stop stop-color="#9E94EC"/>
<stop offset="0.546875" stop-color="#9FB5ED"/>
<stop offset="1" stop-color="#85C4D6"/>
</linearGradient>
<linearGradient id="paint34_linear_384_148" x1="45.9534" y1="16.0417" x2="169.975" y2="43.7776" gradientUnits="userSpaceOnUse">
<stop stop-color="#9E94EC"/>
<stop offset="0.546875" stop-color="#9FB5ED"/>
<stop offset="1" stop-color="#85C4D6"/>
</linearGradient>
<linearGradient id="paint35_linear_384_148" x1="45.9534" y1="16.0417" x2="169.975" y2="43.7776" gradientUnits="userSpaceOnUse">
<stop stop-color="#9E94EC"/>
<stop offset="0.546875" stop-color="#9FB5ED"/>
<stop offset="1" stop-color="#85C4D6"/>
</linearGradient>
<linearGradient id="paint36_linear_384_148" x1="45.9534" y1="16.0417" x2="169.975" y2="43.7776" gradientUnits="userSpaceOnUse">
<stop stop-color="#9E94EC"/>
<stop offset="0.546875" stop-color="#9FB5ED"/>
<stop offset="1" stop-color="#85C4D6"/>
</linearGradient>
<linearGradient id="paint37_linear_384_148" x1="45.9534" y1="16.0417" x2="169.975" y2="43.7776" gradientUnits="userSpaceOnUse">
<stop stop-color="#9E94EC"/>
<stop offset="0.546875" stop-color="#9FB5ED"/>
<stop offset="1" stop-color="#85C4D6"/>
</linearGradient>
<linearGradient id="paint38_linear_384_148" x1="45.9534" y1="16.0417" x2="169.975" y2="43.7776" gradientUnits="userSpaceOnUse">
<stop stop-color="#9E94EC"/>
<stop offset="0.546875" stop-color="#9FB5ED"/>
<stop offset="1" stop-color="#85C4D6"/>
</linearGradient>
<linearGradient id="paint39_linear_384_148" x1="45.9534" y1="16.0417" x2="169.975" y2="43.7776" gradientUnits="userSpaceOnUse">
<stop stop-color="#9E94EC"/>
<stop offset="0.546875" stop-color="#9FB5ED"/>
<stop offset="1" stop-color="#85C4D6"/>
</linearGradient>
<linearGradient id="paint40_linear_384_148" x1="45.9534" y1="16.0417" x2="169.975" y2="43.7776" gradientUnits="userSpaceOnUse">
<stop stop-color="#9E94EC"/>
<stop offset="0.546875" stop-color="#9FB5ED"/>
<stop offset="1" stop-color="#85C4D6"/>
</linearGradient>
<linearGradient id="paint41_linear_384_148" x1="45.9534" y1="16.0417" x2="169.975" y2="43.7776" gradientUnits="userSpaceOnUse">
<stop stop-color="#9E94EC"/>
<stop offset="0.546875" stop-color="#9FB5ED"/>
<stop offset="1" stop-color="#85C4D6"/>
</linearGradient>
<linearGradient id="paint42_linear_384_148" x1="45.9534" y1="16.0417" x2="169.975" y2="43.7776" gradientUnits="userSpaceOnUse">
<stop stop-color="#9E94EC"/>
<stop offset="0.546875" stop-color="#9FB5ED"/>
<stop offset="1" stop-color="#85C4D6"/>
</linearGradient>
<linearGradient id="paint43_linear_384_148" x1="45.9534" y1="16.0417" x2="169.975" y2="43.7776" gradientUnits="userSpaceOnUse">
<stop stop-color="#9E94EC"/>
<stop offset="0.546875" stop-color="#9FB5ED"/>
<stop offset="1" stop-color="#85C4D6"/>
</linearGradient>
<linearGradient id="paint44_linear_384_148" x1="45.9534" y1="16.0417" x2="169.975" y2="43.7776" gradientUnits="userSpaceOnUse">
<stop stop-color="#9E94EC"/>
<stop offset="0.546875" stop-color="#9FB5ED"/>
<stop offset="1" stop-color="#85C4D6"/>
</linearGradient>
<linearGradient id="paint45_linear_384_148" x1="45.9534" y1="16.0417" x2="169.975" y2="43.7776" gradientUnits="userSpaceOnUse">
<stop stop-color="#9E94EC"/>
<stop offset="0.546875" stop-color="#9FB5ED"/>
<stop offset="1" stop-color="#85C4D6"/>
</linearGradient>
<linearGradient id="paint46_linear_384_148" x1="45.9534" y1="16.0417" x2="169.975" y2="43.7776" gradientUnits="userSpaceOnUse">
<stop stop-color="#9E94EC"/>
<stop offset="0.546875" stop-color="#9FB5ED"/>
<stop offset="1" stop-color="#85C4D6"/>
</linearGradient>
<linearGradient id="paint47_linear_384_148" x1="-33.4251" y1="22.25" x2="93.4024" y2="46.0827" gradientUnits="userSpaceOnUse">
<stop stop-color="#9E94EC"/>
<stop offset="0.546875" stop-color="#9FB5ED"/>
<stop offset="1" stop-color="#85C4D6"/>
</linearGradient>
<linearGradient id="paint48_linear_384_148" x1="-33.4251" y1="22.25" x2="93.4024" y2="46.0827" gradientUnits="userSpaceOnUse">
<stop stop-color="#9E94EC"/>
<stop offset="0.546875" stop-color="#9FB5ED"/>
<stop offset="1" stop-color="#85C4D6"/>
</linearGradient>
<linearGradient id="paint49_linear_384_148" x1="-33.4251" y1="22.25" x2="93.4024" y2="46.0827" gradientUnits="userSpaceOnUse">
<stop stop-color="#9E94EC"/>
<stop offset="0.546875" stop-color="#9FB5ED"/>
<stop offset="1" stop-color="#85C4D6"/>
</linearGradient>
<linearGradient id="paint50_linear_384_148" x1="-33.4251" y1="22.25" x2="93.4024" y2="46.0827" gradientUnits="userSpaceOnUse">
<stop stop-color="#9E94EC"/>
<stop offset="0.546875" stop-color="#9FB5ED"/>
<stop offset="1" stop-color="#85C4D6"/>
</linearGradient>
<linearGradient id="paint51_linear_384_148" x1="-33.4251" y1="22.25" x2="93.4024" y2="46.0827" gradientUnits="userSpaceOnUse">
<stop stop-color="#9E94EC"/>
<stop offset="0.546875" stop-color="#9FB5ED"/>
<stop offset="1" stop-color="#85C4D6"/>
</linearGradient>
<linearGradient id="paint52_linear_384_148" x1="-33.4251" y1="22.25" x2="93.4024" y2="46.0827" gradientUnits="userSpaceOnUse">
<stop stop-color="#9E94EC"/>
<stop offset="0.546875" stop-color="#9FB5ED"/>
<stop offset="1" stop-color="#85C4D6"/>
</linearGradient>
<linearGradient id="paint53_linear_384_148" x1="-33.4251" y1="22.25" x2="93.4024" y2="46.0827" gradientUnits="userSpaceOnUse">
<stop stop-color="#9E94EC"/>
<stop offset="0.546875" stop-color="#9FB5ED"/>
<stop offset="1" stop-color="#85C4D6"/>
</linearGradient>
<clipPath id="clip0_384_148">
<rect width="132" height="52" fill="white"/>
</clipPath>
<clipPath id="clip1_384_148">
<rect width="38" height="52" fill="white"/>
</clipPath>
</defs>
</svg>
